inDegrees=yes
name=ik_S41_A03_T01
DataType=double
version=3
OpenSimVersion=4.3-2021-08-27-4bc7ad9
endheader
time	pelvis_tilt	pelvis_list	pelvis_rotation	pelvis_tx	pelvis_ty	pelvis_tz	hip_flexion_r	hip_adduction_r	hip_rotation_r	knee_angle_r	knee_angle_r_beta	ankle_angle_r	subtalar_angle_r	mtp_angle_r	hip_flexion_l	hip_adduction_l	hip_rotation_l	knee_angle_l	knee_angle_l_beta	ankle_angle_l	subtalar_angle_l	mtp_angle_l	lumbar_extension	lumbar_bending	lumbar_rotation	arm_flex_r	arm_add_r	arm_rot_r	elbow_flex_r	pro_sup_r	wrist_flex_r	wrist_dev_r	arm_flex_l	arm_add_l	arm_rot_l	elbow_flex_l	pro_sup_l	wrist_flex_l	wrist_dev_l
0	0	0	0	0	0.9399999999999999	0	0	0	0	0	0	0	0	0	0	0	0	0	0	0	0	0	0	0	0	0	0	0	0	89.99999999963507	0	0	0	0	0	0	89.99999999869995	0	0
0.02	-1.348805855602976	0.9566465210204083	-88.37751770579094	0	0.9399999999999999	0	0.6958871851043413	0.8281329552719404	2.757762871814949	1.053866717314569	0.01839344409432356	0	0	0	-1.728466660285568	-1.41460857589338	-3.070494680994022	-2.642274043802556	-0.04611638180433947	0	0	0	0	0	0	1.729884191565283	-1.729884191565286	0.3079191835885842	8.564695083514904	89.69208083413702	0	0	1.729884191565283	-1.729884191565286	0.3079191835885842	8.564695083514904	89.69208083325969	0	0
0.04	-1.344700657091043	0.9507742236472327	-88.40023098937844	0	0.9399999999999999	0	0.6824074808558636	0.8214922527666333	2.792113483765268	1.003939797445379	0.01752205495722681	0	0	0	-1.744954805613126	-1.406859911878731	-3.047675098431089	-2.660772000650996	-0.04643923205623659	0	0	0	0	0	0	2.301228467900117	-2.30122846790012	0.4132480433794522	10.80383096835412	89.58675198053957	0	0	2.301228467900117	-2.30122846790012	0.4132480433794522	10.80383096835412	89.58675197968198	0	0
0.06	-1.338890166148796	0.9661213929310821	-88.43106711238103	0	0.9399999999999999	0	0.6872723195024901	0.8212586620276424	2.799201196348756	1.024926286967574	0.01788833829782442	0	0	0	-1.740649620817779	-1.404034428277695	-3.054687103148498	-2.631143328193433	-0.04592211416885715	0	0	0	0	0	0	2.826294131248409	-2.826294131248411	0.5096084878618176	12.75184253722568	89.49039154171827	0	0	2.826294131248409	-2.826294131248411	0.5096084878618176	12.75184253722568	89.49039154087873	0	0
0.08	-1.350124415826368	0.9660632923728538	-88.48138098717429	0	0.9399999999999999	0	0.6881891446352573	0.8288488350944034	2.849079136082421	1.031293173516717	0.01799946143120789	0	0	0	-1.76449125932615	-1.410264901050642	-3.087890748156427	-2.644251133410248	-0.04615088852760066	0	0	0	0	0	0	3.341660180596025	-3.341660180596028	0.6036597239758328	14.56944988733291	89.39634031112296	0	0	3.341660180596025	-3.341660180596028	0.6036597239758328	14.56944988733291	89.39634031030107	0	0
0.1	-1.344666398261758	0.9791971275128591	-88.52229394898215	0	0.9399999999999999	0	0.7318492814228916	0.8294962626152687	2.851007744176511	1.112255152187928	0.01941251452794995	0	0	0	-1.762467548964591	-1.402120326051551	-3.110982522406174	-2.664680485204218	-0.04650744798045364	0	0	0	0	0	0	3.460735768055361	-3.460735768055364	0.6253096780275187	14.9238667280053	89.37469035834049	0	0	3.460735768055361	-3.460735768055364	0.6253096780275187	14.9238667280053	89.37469035752267	0	0
0.12	-1.356501246569299	0.9805191684581472	-88.57236562858911	0	0.9399999999999999	0	0.7342033731209658	0.8404394793323885	2.876452340214423	1.155484133199977	0.02016700257889232	0	0	0	-1.769206021175997	-1.415584909266919	-3.156333252753309	-2.662643327703881	-0.04647189287469106	0	0	0	0	0	0	3.572520419270771	-3.572520419270775	0.6456190141495632	15.26235951107357	89.35438102340895	0	0	3.572520419270771	-3.572520419270775	0.6456190141495632	15.26235951107357	89.35438102259492	0	0
0.14	-1.356296527076908	1.007714367435607	-88.62126379793065	0	0.9399999999999999	0	0.7508175609295423	0.8378811315896589	2.905505657484934	1.129080721400031	0.01970617610922335	0	0	0	-1.774787148762746	-1.429140818742188	-3.166781258331311	-2.772915683310115	-0.04839650855394989	0	0	0	0	0	0	3.687964916756866	-3.687964916756869	0.6664822758673618	15.58463572052838	89.33351776291236	0	0	3.687964916756866	-3.687964916756869	0.6664822758673618	15.58463572052838	89.33351776210225	0	0
0.16	-1.368305951661852	1.018168006816794	-88.64938679764683	0	0.9399999999999999	0	0.7543098519194603	0.8550273161434915	2.919286309563156	1.12326463991852	0.01960466633780671	0	0	0	-1.780835596359935	-1.428242008553244	-3.154693532505652	-2.736016700709216	-0.04775249981692809	0	0	0	0	0	0	3.821723774829321	-3.821723774829324	0.6907020122250771	15.99281534477194	89.30929802797333	0	0	3.821723774829321	-3.821723774829324	0.6907020122250771	15.99281534477194	89.30929802716774	0	0
0.18	-1.349924682344025	1.022994554535237	-88.68879869534042	0	0.9399999999999999	0	0.7781862983974255	0.8373281005443493	2.919943919898988	1.174824784023845	0.02050456061524738	0	0	0	-1.7661528699008	-1.403283752285326	-3.183788835983321	-2.716943417420878	-0.04741960822438097	0	0	0	0	0	0	3.935047496478113	-3.935047496478116	0.7112014886654418	16.34349476342	89.2887985527335	0	0	3.935047496478113	-3.935047496478116	0.7112014886654418	16.34349476342	89.28879855193173	0	0
0.2	-1.348696329917509	1.03324190705559	-88.69857181475261	0	0.9399999999999999	0	0.7864287667057774	0.8262040140657168	2.918465748456549	1.157482282441689	0.02020187686210643	0	0	0	-1.778352393777317	-1.406610965944131	-3.180507789529851	-2.749076854993008	-0.0479804425099987	0	0	0	0	0	0	4.047908008966436	-4.04790800896644	0.7315708448294287	16.68624319174539	89.26842919776175	0	0	4.047908008966436	-4.04790800896644	0.7315708448294287	16.68624319174539	89.26842919696381	0	0
0.22	-1.358698061969465	1.043246714759484	-88.72212831355409	0	0.9399999999999999	0	0.7924938254331925	0.8464584176369687	2.928018160826851	1.160533911893382	0.0202551378435893	0	0	0	-1.775930022125979	-1.413346374558455	-3.195733214809064	-2.747627397495358	-0.04795514470429699	0	0	0	0	0	0	4.165584258714673	-4.165584258714675	0.7527836277883997	17.04887338362858	89.2472164160441	0	0	4.165584258714673	-4.165584258714675	0.7527836277883997	17.04887338362858	89.24721641525012	0	0
0.24	-1.34682751507591	1.054874192682989	-88.73029398818102	0	0.9399999999999999	0	0.812684862685748	0.8379039893515029	2.937615947666372	1.158484229616189	0.0202193641392325	0	0	0	-1.779068141783183	-1.401927099588546	-3.190980058525986	-2.778561075267945	-0.04849503923117961	0	0	0	0	0	0	4.272581870383867	-4.27258187038387	0.7720003487406892	17.36797803650199	89.22799969621531	0	0	4.272581870383867	-4.27258187038387	0.7720003487406892	17.36797803650199	89.2279996954249	0	0
0.26	-1.36129573621589	1.08261027907858	-88.77540549162482	0	0.9399999999999999	0	0.8552959594541096	0.8495239343124319	2.970483773043878	1.241938142757576	0.02167590969722306	0	0	0	-1.684539549360236	-1.418475920150205	-3.261601118671315	-2.453237199521246	-0.0428170664640508	0	0	0	0	0	0	4.701785034134777	-4.70178503413478	0.849100964006912	18.8548337285524	89.15089908545824	0	0	4.701785034134777	-4.70178503413478	0.849100964006912	18.8548337285524	89.15089908468228	0	0
0.28	-1.337091988575421	1.065544833766572	-88.79550412720728	0	0.9399999999999999	0	0.8097335078082977	0.8284336261277648	3.009655261907877	1.112724047291972	0.01942069829136201	0	0	0	-1.763240840666899	-1.399993233403391	-3.249594990596829	-2.710143546940814	-0.0473009280957947	0	0	0	0	0	0	4.806524978660915	-4.806524978660918	0.8683645013994534	19.29383070375074	89.13163554919961	0	0	4.806524978660915	-4.806524978660918	0.8683645013994534	19.29383070375074	89.13163554842721	0	0
0.3	-1.337801329667335	1.141620005246178	-88.79333286945676	0	0.9399999999999999	0	0.9481727332644544	0.832744822035221	2.993954798711957	1.30409137422973	0.02276068822716631	0	0	0	-1.638218373843751	-1.40257522014964	-3.261208940695951	-2.497977194055539	-0.04359792667599848	0	0	0	0	0	0	4.928497730560804	-4.928497730560806	0.8902596482112576	19.73206773424151	89.10974040366875	0	0	4.928497730560804	-4.928497730560806	0.8902596482112576	19.73206773424151	89.1097404029004	0	0
0.32	-1.338831272464461	1.114401288257675	-88.79448004310949	0	0.9399999999999999	0	0.864756690962134	0.8286374938624953	3.006718295092528	1.067520852866159	0.01863175371621242	0	0	0	-1.721416734125064	-1.405107300508127	-3.239287412403951	-2.705436478529986	-0.04721877425390914	0	0	0	0	0	0	5.100457067311819	-5.100457067311824	0.9221369907642065	20.55888523332344	89.07786306299596	0	0	5.100457067311819	-5.100457067311824	0.9221369907642065	20.55888523332344	89.0778630622342	0	0
